<svg xmlns="http://www.w3.org/2000/svg" version="1.1" id="Layer_1" x="0px" y="0px" viewBox="0 0 512 512" style="enable-background:new 0 0 512 512;" xml:space="preserve">
<style type="text/css">	.st0{fill:#607D8B;}.st1{fill:#ECEFF1;}</style>
<path class="st0" d="M-1.3,297.1v13.1v83.7v13.1c0,15.9,5.2,28.8,11.6,28.8h78.1c6.4,0,11.6-12.9,11.6-28.8V297.1  c0-15.9-5.2-28.8-11.6-28.8H10.3C3.9,268.3-1.3,281.2-1.3,297.1z"/>
<path class="st1" d="M445.2,208c12.6,0,22.8,10.8,22.8,24v240c0,13.2-10.2,24-22.8,24H35.6c-12.6,0-22.8-10.8-22.8-24v-35.7  c0-13.2,10.2-24,22.8-24c12.6,0,22.8-10.8,22.8-24V327c0-13.2-10.2-24-22.8-24c-12.6,0-22.8-45.7-22.8-59v-12  c0-13.2,10.2-24,22.8-24L445.2,208L445.2,208z"/>
<path class="st0" d="M410.5,16h-13.9h-89.1h-13.9c-16.9,0-30.6,14.7-30.6,32.7v219.9c0,18,13.7,32.7,30.6,32.7h117  c16.9,0,30.6-14.7,30.6-32.7V48.7C441.2,30.7,427.4,16,410.5,16L410.5,16z"/>
<path class="st1" d="M487,472c0,13.2-10.1,24-22.5,24H239.6c-12.4,0-22.5-10.8-22.5-24V40c0-13.2,10.1-24,22.5-24h11.2  c12.4,0,22.5,10.8,22.5,24s10.1,24,22.5,24h112.4c12.4,0,22.5-10.8,22.5-24s10.1-24,22.5-24h11.2c12.4,0,22.5,10.8,22.5,24L487,472  L487,472z"/>
<g>
	<path d="M394.7,74.7h-85.3c-20.6,0-37.3-16.7-37.3-37.3c0-2.9-2.4-5.3-5.3-5.3h-21.3c-8.8,0-16-7.2-16-16s7.2-16,16-16h21.3   C287.3,0,304,16.7,304,37.3c0,2.9,2.4,5.3,5.3,5.3h85.3c2.9,0,5.3-2.4,5.3-5.3C400,16.7,416.7,0,437.3,0h21.3c8.8,0,16,7.2,16,16   s-7.2,16-16,16h-21.3c-2.9,0-5.3,2.4-5.3,5.3C432,57.9,415.3,74.7,394.7,74.7z"/>
</g>
<g>
	<path d="M14.7,229.3c8.8,0,16,7.2,16,16v21.3c0,2.9,2.4,5.3,5.3,5.3c20.6,0,37.3,16.7,37.3,37.3v85.3c0,20.6-16.7,37.3-37.3,37.3   c-2.9,0-5.3,2.4-5.3,5.3v21.3c0,8.8-7.2,16-16,16s-16-7.2-16-16v-21.3c0-20.6,16.7-37.3,37.3-37.3c2.9,0,5.3-2.4,5.3-5.3v-85.3   c0-2.9-2.4-5.3-5.3-5.3c-20.6,0-37.3-16.7-37.3-37.3v-21.3C-1.3,236.5,5.8,229.3,14.7,229.3z"/>
</g>
<g>
	<path d="M453.3,512H250.7c-32.4,0-58.7-26.3-58.7-58.7V58.7C192,26.3,218.3,0,250.7,0h202.7C485.7,0,512,26.3,512,58.7v394.7   C512,485.7,485.7,512,453.3,512z M250.7,32C236,32,224,44,224,58.7v394.7c0,14.7,12,26.7,26.7,26.7h202.7c14.7,0,26.7-12,26.7-26.7   V58.7C480,44,468,32,453.3,32H250.7z"/>
</g>
<g>
	<path d="M57.3,192h96c8.8,0,16,7.2,16,16c0,8.8-7.2,16-16,16h-96c-14.7,0-26.7,12-26.7,26.7v202.7c0,14.7,12,26.7,26.7,26.7h96   c8.8,0,16,7.2,16,16c0,8.8-7.2,16-16,16h-96C25,512-1.3,485.7-1.3,453.3V250.7C-1.3,218.3,25,192,57.3,192z"/>
</g>
<g>
	<path d="M161.7,63.7c0,4.7-2,9.1-5.6,12.2l-37.3,32c-6.7,5.8-16.8,5-22.6-1.7c-5.8-6.7-5-16.8,1.7-22.6l23.2-19.9L97.9,43.8   c-6.7-5.7-7.5-15.8-1.7-22.6c5.8-6.7,15.9-7.5,22.6-1.7l37.3,32C159.6,54.6,161.7,59,161.7,63.7L161.7,63.7z"/>
</g>
<g>
	<path d="M161.7,64.3c0,8.8-7.2,16-16,16H119c-34,0-58.7,22.4-58.7,53.3c0,8.8-7.2,16-16,16s-16-7.2-16-16c0-48.6,39-85.3,90.7-85.3   h26.7C154.5,48.3,161.7,55.5,161.7,64.3z"/>
</g>
</svg>
